<svg width="787" height="209" viewBox="0 0 787 209" fill="none" xmlns="http://www.w3.org/2000/svg">
<path d="M48.21 0.779981L118.58 183.37L109.9 206H103.39L36.74 36.12C31.47 22.48 24.03 8.52999 11.01 2.01998C9.77 1.39999 9.15 0.779981 8.84 0.779981H48.21ZM227.08 204.76C228.01 205.38 228.94 205.69 230.18 206H180.27L183.37 205.07C187.09 203.83 189.57 201.04 191.12 197.63C192.36 194.84 192.67 191.12 192.67 186.16L187.4 0.779981H224.29C223.05 1.09 221.81 1.70999 220.88 2.01998C217.16 3.25999 214.37 6.04999 213.13 9.46C212.2 12.25 211.27 15.97 211.58 20.93L217.47 185.85C217.78 191.12 218.09 194.84 219.33 197.63C220.57 200.73 223.36 202.28 227.08 204.76ZM21.55 191.74C22.79 197.01 25.27 201.35 28.99 203.52C30.54 204.45 32.71 205.38 34.88 206H0.47C2.64 205.38 4.81 204.45 6.36 203.52C10.39 201.04 12.87 197.32 14.42 192.05C15.66 187.4 16.59 181.2 16.9 173.14L22.17 37.05L20.31 172.83C20.31 180.89 20.31 187.09 21.55 191.74ZM288.55 173.45C292.27 184.3 297.54 192.67 304.05 198.87C310.25 204.76 317.69 207.86 325.75 208.48C313.66 208.17 302.5 205.38 292.58 199.8C282.04 193.91 273.67 185.85 267.78 175.31C261.58 165.08 258.48 152.37 258.48 138.42C258.48 124.47 261.58 112.07 267.78 101.53C273.98 91.3 282.35 82.93 292.89 77.04C301.88 71.77 311.8 68.98 322.34 68.05C310.56 69.6 301.26 76.11 294.44 87.58C287 99.98 283.28 116.41 283.28 136.87C283.28 150.51 284.83 162.91 288.55 173.45ZM388.06 100.91C393.95 111.45 397.05 123.85 397.05 137.8C397.05 151.75 393.95 164.15 387.75 175C381.55 185.54 373.18 193.91 362.64 199.8C353.65 204.76 343.73 207.86 333.19 208.48C344.66 207.24 354.27 200.73 361.09 189.26C368.53 176.86 372.25 160.12 372.25 139.35C372.25 125.71 370.7 113.31 366.98 102.77C363.26 91.92 358.3 83.24 351.48 77.35C344.97 71.77 337.84 68.36 329.78 68.05C341.87 68.05 353.03 71.15 363.26 76.73C373.49 82.31 382.17 90.37 388.06 100.91ZM466.783 195.46C471.743 200.11 478.253 202.59 485.693 202.59C488.793 202.59 491.893 202.28 494.683 201.35C493.133 202.59 491.583 203.52 489.723 204.45C484.453 207.24 477.943 208.48 470.813 208.48C464.303 208.48 458.413 207.24 453.453 204.76C448.493 202.28 444.773 198.25 441.983 192.98C438.883 187.4 437.643 179.96 437.643 170.97V73.32H421.523L459.343 43.87V170.97C459.343 182.44 461.513 190.81 466.783 195.46ZM498.093 70.84V73.01L470.503 72.08L498.093 70.84Z" fill="#0E0E0E"/>
<path d="M562.188 191.43C568.388 198.25 577.378 201.97 589.158 201.97C595.048 201.97 600.628 201.04 605.588 198.87C604.348 199.8 602.798 200.73 601.248 201.66C593.808 206.31 584.818 208.48 574.898 208.48C561.878 208.48 551.028 205.07 542.658 198.25C534.598 191.43 530.568 181.2 530.568 166.94V90.06C530.568 85.1 529.638 82 528.398 79.83C527.158 77.66 524.058 76.11 519.098 74.56L516.308 73.63L552.578 69.6V161.05C552.578 174.38 555.678 184.3 562.188 191.43ZM660.768 202.59L624.808 206.62V90.06C624.808 85.1 624.188 82 622.638 79.83C621.088 77.66 617.988 76.11 613.028 74.56L610.238 73.63L646.508 69.6V186.16C646.508 190.81 647.128 194.53 648.678 196.39C650.228 198.25 653.018 201.66 657.978 201.66H658.288L660.768 202.59ZM776.734 144.93C782.934 151.44 786.034 159.81 786.034 170.35C786.034 178.41 783.864 184.92 779.214 190.5C774.254 196.39 767.744 200.73 760.304 203.83C754.414 206.31 748.524 207.55 742.014 208.17C749.144 207.55 755.344 205.07 759.994 200.73C766.194 195.15 769.294 188.33 769.294 179.96C769.294 171.9 767.124 165.08 761.544 160.12C756.584 155.47 749.144 151.75 738.914 148.34L727.754 144.62C715.664 140.59 706.364 135.01 699.544 129.12C693.034 123.23 689.934 115.48 689.934 105.87C689.934 97.81 691.794 91.3 696.134 85.72C700.474 80.14 706.364 75.8 713.804 73.01C720.314 70.53 727.754 68.98 735.814 68.67C727.444 69.29 720.934 71.77 715.974 75.8C709.774 81.07 706.674 87.58 706.674 95.64C706.674 103.7 710.084 109.9 715.664 114.55C720.934 118.89 728.374 122.92 737.674 125.71L748.834 129.12C760.924 132.84 770.224 138.11 776.734 144.93ZM779.214 99.05C776.424 90.68 772.394 84.17 767.124 79.21C759.994 72.7 751.934 69.29 742.944 68.67C751.314 68.67 759.064 69.6 765.264 71.15C771.154 72.7 775.494 74.25 778.594 76.11L779.214 99.05ZM696.754 187.71C701.714 194.53 707.294 200.11 714.424 203.52C720.314 206.31 726.204 208.17 732.404 208.48C723.414 208.48 715.044 206.93 707.604 205.38C700.164 203.83 694.274 201.35 690.244 198.87L689.004 172.52C690.864 178.1 693.654 183.37 696.754 187.71ZM742.014 208.17C741.394 208.48 740.774 208.48 740.154 208.48C740.774 208.48 741.394 208.48 742.014 208.17Z" fill="#FF0074"/>
</svg>
